<svg width="40" height="40" viewBox="0 0 40 40" fill="none" xmlns="http://www.w3.org/2000/svg">
<circle cx="20" cy="20" r="20" fill="#71747A"/>
<path d="M20.4222 19.0003C21.1639 19.0003 21.8889 18.7657 22.5057 18.3262C23.1224 17.8866 23.603 17.2619 23.8869 16.531C24.1707 15.8 24.245 14.9957 24.1003 14.2198C23.9556 13.4438 23.5984 12.7311 23.0739 12.1716C22.5495 11.6122 21.8813 11.2312 21.1538 11.0769C20.4263 10.9225 19.6723 11.0017 18.9871 11.3045C18.3018 11.6073 17.7161 12.12 17.304 12.7778C16.892 13.4356 16.672 14.209 16.672 15.0002C16.6751 16.0601 17.0711 17.0756 17.7738 17.8251C18.4764 18.5746 19.4285 18.9971 20.4222 19.0003V19.0003ZM20.4222 21.0001C17.9376 21.0001 12.9219 22.3501 12.9219 25.0002V27H27.9219V25.0002C27.9219 22.3501 22.9061 21.0001 20.4222 21.0001V21.0001Z" fill="white"/>
</svg>
