<svg width="24" height="24" viewBox="0 0 24 24" fill="none" xmlns="http://www.w3.org/2000/svg">
<path d="M1.0995 6H4.899C5.508 6 6 5.508 6 4.9005V1.0995C6 0.492 5.508 0 4.9005 0H1.0995C0.492 0 0 0.492 0 1.0995V4.899C0 5.508 0.492 6 1.0995 6Z" fill="#626262"/>
<path d="M1.0995 15H4.899C5.508 15 6 14.508 6 13.9005V10.101C6 9.492 5.508 9 4.9005 9H1.0995C0.492 9 0 9.492 0 10.0995V13.899C0 14.508 0.492 15 1.0995 15Z" fill="#626262"/>
<path d="M1.0995 24H4.899C5.508 24 6 23.508 6 22.9005V19.101C6 18.492 5.508 18 4.9005 18H1.0995C0.492 18 0 18.492 0 19.0995V22.899C0 23.508 0.492 24 1.0995 24Z" fill="#626262"/>
<path d="M10.0995 6H13.899C14.508 6 15 5.508 15 4.9005V1.0995C15 0.492 14.508 0 13.9005 0H10.101C9.492 0 9 0.492 9 1.0995V4.899C9 5.508 9.492 6 10.0995 6Z" fill="#626262"/>
<path d="M9 13.9005C9 14.508 9.492 15 10.0995 15H13.899C14.508 15 15 14.508 15 13.9005V10.101C15 9.492 14.508 9 13.9005 9H10.101C9.492 9 9 9.492 9 10.0995V13.9005Z" fill="#626262"/>
<path d="M9 22.9005C9 23.508 9.492 24 10.0995 24H13.899C14.508 24 15 23.508 15 22.9005V19.101C15 18.492 14.508 18 13.9005 18H10.101C9.492 18 9 18.492 9 19.0995V22.9005Z" fill="#626262"/>
<path d="M22.9005 0H19.101C18.492 0 18 0.492 18 1.0995V4.899C18 5.508 18.492 6 19.0995 6H22.899C23.508 6 24 5.508 24 4.9005V1.0995C24 0.492 23.508 0 22.9005 0Z" fill="#626262"/>
<path d="M22.9005 9H19.101C18.492 9 18 9.492 18 10.0995V13.899C18 14.508 18.492 15 19.0995 15H22.899C23.508 15 24 14.508 24 13.9005V10.101C24 9.492 23.508 9 22.9005 9Z" fill="#626262"/>
<path d="M22.9005 18H19.101C18.492 18 18 18.492 18 19.0995V22.899C18 23.508 18.492 24 19.0995 24H22.899C23.508 24 24 23.508 24 22.9005V19.101C24 18.492 23.508 18 22.9005 18Z" fill="#626262"/>
</svg>
