<svg width="386" height="399" viewBox="0 0 386 399" fill="none" xmlns="http://www.w3.org/2000/svg">
<path opacity="0.1" d="M383.38 212.29L286.68 308.99L199.29 396.38C195.82 399.86 190.17 399.86 186.7 396.38L139.59 349.27L130.21 339.89L123.9 333.58L99.31 309L2.61 212.3C-0.87 208.83 -0.87 203.18 2.61 199.71L69.51 132.81L100.38 101.94L186.7 15.6198C190.17 12.1398 195.82 12.1398 199.29 15.6198L285.61 101.94L287.21 103.54L293.51 109.84L293.94 110.27L315.92 132.25L316.49 132.82L383.39 199.72C386.86 203.17 386.86 208.82 383.38 212.29Z" fill="black"/>
<path d="M383.38 199.29L286.68 295.99L199.29 383.38C195.82 386.86 190.17 386.86 186.7 383.38L139.59 336.27L130.21 326.89L123.9 320.58L99.31 296L2.61 199.3C-0.87 195.83 -0.87 190.18 2.61 186.71L69.51 119.81L100.38 88.9398L186.7 2.61977C190.17 -0.860234 195.82 -0.860234 199.29 2.61977L285.61 88.9398L287.21 90.5398L293.51 96.8398L293.94 97.2698L315.92 119.25L316.49 119.82L383.39 186.72C386.86 190.17 386.86 195.82 383.38 199.29Z" fill="black"/>
<path d="M12.6575 189L188.747 12.9002C190.957 10.6902 194.537 10.6902 196.747 12.9002L372.837 189C375.047 191.21 375.047 194.79 372.837 197L196.747 373.09C194.537 375.3 190.957 375.3 188.747 373.09L12.6575 197C10.4475 194.79 10.4475 191.21 12.6575 189Z" fill="#FF9D0A"/>
<path d="M286.672 296L199.283 383.39C195.813 386.87 190.162 386.87 186.692 383.39L139.582 336.28L130.202 326.9L123.892 320.59L99.3125 296H286.672Z" fill="black"/>
<path d="M344.211 194.08C344.211 195.92 345.701 197.4 347.531 197.4C349.371 197.4 350.851 195.91 350.851 194.08C350.851 192.24 349.361 190.76 347.531 190.76C345.701 190.75 344.211 192.24 344.211 194.08Z" fill="black"/>
<path d="M33.2812 194.08C33.2812 195.92 34.7712 197.4 36.6012 197.4C38.4412 197.4 39.9212 195.91 39.9212 194.08C39.9212 192.24 38.4312 190.76 36.6012 190.76C34.7712 190.75 33.2812 192.24 33.2812 194.08Z" fill="black"/>
<path d="M120.176 148.652H125.656V178.613C125.656 181.707 124.927 184.469 123.468 186.899C122.025 189.315 119.985 191.222 117.348 192.622C114.711 194.006 111.618 194.699 108.068 194.699C104.518 194.699 101.424 194.006 98.7876 192.622C96.1509 191.222 94.1033 189.315 92.645 186.899C91.2015 184.469 90.4797 181.707 90.4797 178.613V148.652H95.9594V178.171C95.9594 180.381 96.4455 182.347 97.4177 184.071C98.3899 185.78 99.7745 187.127 101.572 188.114C103.383 189.087 105.549 189.573 108.068 189.573C110.587 189.573 112.752 189.087 114.564 188.114C116.376 187.127 117.76 185.78 118.718 184.071C119.69 182.347 120.176 180.381 120.176 178.171V148.652ZM172.482 148.652V193.903H167.179L142.52 158.374H142.078V193.903H136.598V148.652H141.901L166.648 184.27H167.09V148.652H172.482ZM197.411 193.903H183.446V148.652H198.029C202.419 148.652 206.175 149.558 209.298 151.37C212.421 153.167 214.815 155.752 216.479 159.125C218.144 162.484 218.976 166.505 218.976 171.189C218.976 175.903 218.136 179.961 216.457 183.364C214.778 186.752 212.333 189.359 209.121 191.186C205.91 192.997 202.007 193.903 197.411 193.903ZM188.926 189.042H197.057C200.799 189.042 203.9 188.321 206.359 186.877C208.819 185.433 210.653 183.379 211.861 180.712C213.069 178.046 213.673 174.872 213.673 171.189C213.673 167.536 213.077 164.391 211.883 161.754C210.69 159.103 208.908 157.07 206.536 155.656C204.165 154.227 201.211 153.513 197.676 153.513H188.926V189.042ZM228.168 193.903V148.652H255.478V153.513H233.647V168.803H254.064V173.664H233.647V189.042H255.831V193.903H228.168ZM265.354 193.903V148.652H280.645C284.18 148.652 287.082 149.256 289.35 150.464C291.619 151.657 293.298 153.299 294.388 155.391C295.478 157.483 296.023 159.862 296.023 162.528C296.023 165.194 295.478 167.558 294.388 169.62C293.298 171.683 291.626 173.303 289.372 174.481C287.118 175.645 284.239 176.227 280.733 176.227H268.359V171.278H280.556C282.972 171.278 284.916 170.924 286.389 170.217C287.877 169.51 288.952 168.508 289.615 167.212C290.293 165.901 290.632 164.34 290.632 162.528C290.632 160.716 290.293 159.132 289.615 157.777C288.938 156.422 287.855 155.376 286.367 154.64C284.879 153.888 282.913 153.513 280.468 153.513H270.834V193.903H265.354ZM286.654 173.575L297.791 193.903H291.427L280.468 173.575H286.654Z" fill="black"/>
<path d="M99.5916 230.806H93.4213V210.811H99.8649C101.805 210.811 103.464 211.211 104.844 212.012C106.224 212.806 107.282 213.948 108.017 215.438C108.753 216.922 109.12 218.699 109.12 220.769C109.12 222.852 108.749 224.645 108.007 226.149C107.265 227.646 106.185 228.798 104.766 229.605C103.347 230.405 101.622 230.806 99.5916 230.806ZM95.8425 228.658H99.4354C101.089 228.658 102.459 228.339 103.546 227.701C104.633 227.063 105.443 226.155 105.977 224.977C106.51 223.799 106.777 222.396 106.777 220.769C106.777 219.155 106.514 217.765 105.986 216.6C105.459 215.429 104.672 214.531 103.624 213.906C102.576 213.274 101.271 212.959 99.7087 212.959H95.8425V228.658ZM113.182 230.806V210.811H125.249V212.959H115.603V219.715H124.624V221.863H115.603V228.658H125.405V230.806H113.182ZM130.433 210.811L136.369 227.642H136.604L142.54 210.811H145.078L137.736 230.806H135.237L127.895 210.811H130.433ZM148.192 230.806V210.811H160.26V212.959H150.614V219.715H159.635V221.863H150.614V228.658H160.416V230.806H148.192ZM164.624 230.806V210.811H167.045V228.658H176.34V230.806H164.624ZM196.181 220.808C196.181 222.917 195.8 224.74 195.038 226.276C194.277 227.812 193.232 228.996 191.904 229.829C190.577 230.662 189.06 231.079 187.355 231.079C185.65 231.079 184.133 230.662 182.805 229.829C181.477 228.996 180.433 227.812 179.671 226.276C178.91 224.74 178.529 222.917 178.529 220.808C178.529 218.699 178.91 216.877 179.671 215.341C180.433 213.805 181.477 212.62 182.805 211.787C184.133 210.954 185.65 210.537 187.355 210.537C189.06 210.537 190.577 210.954 191.904 211.787C193.232 212.62 194.277 213.805 195.038 215.341C195.8 216.877 196.181 218.699 196.181 220.808ZM193.838 220.808C193.838 219.077 193.548 217.616 192.969 216.425C192.396 215.233 191.618 214.332 190.635 213.72C189.659 213.108 188.565 212.802 187.355 212.802C186.144 212.802 185.048 213.108 184.065 213.72C183.088 214.332 182.311 215.233 181.731 216.425C181.159 217.616 180.872 219.077 180.872 220.808C180.872 222.54 181.159 224.001 181.731 225.192C182.311 226.383 183.088 227.284 184.065 227.896C185.048 228.508 186.144 228.814 187.355 228.814C188.565 228.814 189.659 228.508 190.635 227.896C191.618 227.284 192.396 226.383 192.969 225.192C193.548 224.001 193.838 222.54 193.838 220.808ZM200.252 230.806V210.811H207.008C208.577 210.811 209.859 211.094 210.855 211.66C211.857 212.22 212.599 212.978 213.081 213.935C213.562 214.892 213.803 215.959 213.803 217.137C213.803 218.315 213.562 219.386 213.081 220.349C212.606 221.313 211.87 222.081 210.874 222.653C209.878 223.22 208.603 223.503 207.047 223.503H202.205V221.355H206.969C208.043 221.355 208.905 221.169 209.556 220.798C210.207 220.427 210.679 219.926 210.972 219.295C211.271 218.657 211.421 217.938 211.421 217.137C211.421 216.337 211.271 215.621 210.972 214.989C210.679 214.358 210.204 213.863 209.546 213.505C208.889 213.141 208.017 212.959 206.93 212.959H202.673V230.806H200.252ZM217.704 210.811H220.593L227.389 227.408H227.623L234.418 210.811H237.308V230.806H235.043V215.614H234.848L228.599 230.806H226.412L220.164 215.614H219.969V230.806H217.704V210.811ZM242.163 230.806V210.811H254.23V212.959H244.584V219.715H253.605V221.863H244.584V228.658H254.386V230.806H242.163ZM274.449 210.811V230.806H272.106L261.211 215.107H261.015V230.806H258.594V210.811H260.937L271.872 226.549H272.067V210.811H274.449ZM278.201 212.959V210.811H293.197V212.959H286.91V230.806H284.488V212.959H278.201Z" fill="black"/>
<path d="M161.678 295.2C161.748 295.09 161.818 294.98 161.878 294.87C161.908 294.81 161.938 294.75 161.968 294.69C161.988 294.66 161.998 294.63 162.018 294.6C162.058 294.52 162.098 294.45 162.138 294.37C162.178 294.3 162.208 294.23 162.238 294.16C162.288 294.05 162.348 293.94 162.408 293.83C162.458 293.73 162.488 293.62 162.538 293.52C162.568 293.45 162.598 293.37 162.638 293.29C162.668 293.21 162.698 293.14 162.728 293.06C162.768 292.96 162.818 292.86 162.858 292.75C162.898 292.64 162.928 292.52 162.968 292.4C162.988 292.33 163.018 292.25 163.038 292.18C163.068 292.1 163.088 292.02 163.118 291.93C163.128 291.9 163.138 291.86 163.148 291.83C163.168 291.77 163.188 291.7 163.208 291.64C163.238 291.52 163.268 291.39 163.298 291.27C163.318 291.19 163.338 291.11 163.348 291.04C163.358 291 163.368 290.95 163.378 290.91L169.558 289.84V286.11L163.378 285.04C163.368 285 163.358 284.95 163.348 284.91C163.328 284.83 163.318 284.75 163.298 284.68C163.268 284.56 163.238 284.43 163.208 284.31C163.188 284.25 163.168 284.18 163.148 284.12C163.138 284.09 163.128 284.05 163.118 284.02C163.098 283.94 163.068 283.85 163.038 283.77C163.018 283.7 162.988 283.62 162.968 283.55C162.928 283.43 162.898 283.32 162.858 283.2C162.818 283.1 162.768 283 162.728 282.89C162.698 282.81 162.668 282.74 162.638 282.66C162.608 282.58 162.578 282.51 162.538 282.43C162.498 282.33 162.458 282.22 162.408 282.12C162.358 282.01 162.298 281.9 162.238 281.79C162.208 281.72 162.168 281.65 162.138 281.58C162.098 281.5 162.058 281.43 162.018 281.35C161.998 281.32 161.988 281.29 161.968 281.26C161.938 281.2 161.908 281.14 161.878 281.08C161.818 280.97 161.748 280.86 161.678 280.75C161.638 280.68 161.598 280.62 161.548 280.55C161.528 280.51 161.508 280.47 161.478 280.43L165.098 275.3L162.458 272.66L157.328 276.28C157.288 276.26 157.248 276.24 157.208 276.21C157.138 276.17 157.078 276.12 157.008 276.08C156.898 276.01 156.788 275.94 156.678 275.88C156.618 275.85 156.558 275.82 156.498 275.79C156.468 275.77 156.438 275.76 156.408 275.74C156.328 275.7 156.258 275.66 156.178 275.62C156.108 275.58 156.038 275.55 155.968 275.52C155.858 275.47 155.748 275.41 155.638 275.35C155.538 275.3 155.428 275.27 155.328 275.22C155.258 275.19 155.178 275.16 155.098 275.12C155.018 275.09 154.948 275.06 154.868 275.03C154.768 274.99 154.668 274.94 154.558 274.9C154.448 274.86 154.328 274.83 154.208 274.79C154.138 274.77 154.058 274.74 153.988 274.72C153.908 274.69 153.828 274.67 153.738 274.64C153.708 274.63 153.668 274.62 153.638 274.61C153.578 274.59 153.508 274.57 153.448 274.55C153.328 274.52 153.198 274.49 153.078 274.46C152.998 274.44 152.918 274.42 152.848 274.41C152.808 274.4 152.758 274.39 152.718 274.38L151.648 268.2H147.918L146.848 274.38C146.808 274.39 146.758 274.4 146.718 274.41C146.638 274.43 146.558 274.44 146.488 274.46C146.368 274.49 146.238 274.52 146.118 274.55C146.058 274.57 145.988 274.59 145.928 274.61C145.898 274.62 145.858 274.63 145.828 274.64C145.748 274.66 145.658 274.69 145.578 274.72C145.508 274.74 145.428 274.77 145.358 274.79C145.238 274.83 145.128 274.86 145.008 274.9C144.908 274.94 144.808 274.99 144.698 275.03C144.618 275.06 144.548 275.09 144.468 275.12C144.388 275.15 144.318 275.18 144.238 275.22C144.138 275.26 144.028 275.3 143.928 275.35C143.818 275.4 143.708 275.46 143.598 275.52C143.528 275.55 143.458 275.59 143.388 275.62C143.308 275.66 143.238 275.7 143.158 275.74C143.128 275.76 143.098 275.77 143.068 275.79C143.008 275.82 142.948 275.85 142.888 275.88C142.778 275.94 142.668 276.01 142.558 276.08C142.488 276.12 142.428 276.16 142.358 276.21C142.318 276.23 142.278 276.25 142.238 276.28L137.108 272.66L134.468 275.3L138.088 280.43C138.068 280.47 138.048 280.51 138.018 280.55C137.978 280.62 137.928 280.68 137.888 280.75C137.818 280.86 137.748 280.97 137.688 281.08C137.658 281.14 137.628 281.2 137.598 281.26C137.578 281.29 137.568 281.32 137.548 281.35C137.508 281.43 137.468 281.5 137.428 281.58C137.388 281.65 137.358 281.72 137.328 281.79C137.278 281.9 137.218 282.01 137.158 282.12C137.108 282.22 137.078 282.33 137.028 282.43C136.998 282.5 136.968 282.58 136.928 282.66C136.898 282.74 136.868 282.81 136.838 282.89C136.798 282.99 136.748 283.09 136.708 283.2C136.668 283.31 136.638 283.43 136.598 283.55C136.578 283.62 136.548 283.7 136.528 283.77C136.498 283.85 136.478 283.93 136.448 284.02C136.438 284.05 136.428 284.09 136.418 284.12C136.398 284.18 136.378 284.25 136.358 284.31C136.328 284.43 136.298 284.56 136.268 284.68C136.248 284.76 136.228 284.84 136.218 284.91C136.208 284.95 136.198 285 136.188 285.04L130.008 286.11V289.84L136.188 290.91C136.198 290.95 136.208 291 136.218 291.04C136.238 291.12 136.248 291.2 136.268 291.27C136.298 291.39 136.328 291.52 136.358 291.64C136.378 291.7 136.398 291.77 136.418 291.83C136.428 291.86 136.438 291.9 136.448 291.93C136.468 292.01 136.498 292.1 136.528 292.18C136.548 292.25 136.578 292.33 136.598 292.4C136.638 292.52 136.668 292.63 136.708 292.75C136.748 292.85 136.798 292.95 136.838 293.06C136.868 293.14 136.898 293.21 136.928 293.29C136.958 293.37 136.988 293.44 137.028 293.52C137.068 293.62 137.108 293.73 137.158 293.83C137.208 293.94 137.268 294.05 137.328 294.16C137.358 294.23 137.398 294.3 137.428 294.37C137.468 294.45 137.508 294.52 137.548 294.6C137.568 294.63 137.578 294.66 137.598 294.69C137.628 294.75 137.658 294.81 137.688 294.87C137.748 294.98 137.818 295.09 137.888 295.2C137.928 295.27 137.968 295.33 138.018 295.4C138.038 295.44 138.058 295.48 138.088 295.52L134.468 300.65L137.108 303.29L142.238 299.67C142.278 299.7 142.318 299.71 142.358 299.74C142.428 299.78 142.488 299.83 142.558 299.87C142.668 299.94 142.778 300.01 142.888 300.07C142.948 300.1 143.008 300.13 143.068 300.16C143.098 300.18 143.128 300.19 143.158 300.21C143.238 300.25 143.308 300.29 143.388 300.33C143.458 300.37 143.528 300.4 143.598 300.44C143.708 300.49 143.818 300.55 143.928 300.61C144.028 300.66 144.138 300.69 144.238 300.74C144.308 300.77 144.388 300.8 144.468 300.84C144.548 300.87 144.618 300.9 144.698 300.93C144.798 300.97 144.898 301.02 145.008 301.06C145.118 301.1 145.238 301.13 145.358 301.17C145.428 301.19 145.508 301.22 145.578 301.24C145.658 301.27 145.738 301.29 145.828 301.32C145.858 301.33 145.898 301.34 145.928 301.35C145.988 301.37 146.058 301.39 146.118 301.41C146.238 301.44 146.368 301.47 146.488 301.5C146.568 301.52 146.648 301.54 146.718 301.55C146.758 301.56 146.808 301.57 146.848 301.58L147.918 307.76H151.648L152.718 301.58C152.758 301.57 152.808 301.56 152.848 301.55C152.928 301.53 153.008 301.52 153.078 301.5C153.198 301.47 153.328 301.44 153.448 301.41C153.508 301.39 153.578 301.37 153.638 301.35C153.668 301.34 153.708 301.33 153.738 301.32C153.818 301.3 153.908 301.27 153.988 301.24C154.058 301.22 154.138 301.19 154.208 301.17C154.328 301.13 154.438 301.1 154.558 301.06C154.658 301.02 154.758 300.97 154.868 300.93C154.948 300.9 155.018 300.87 155.098 300.84C155.178 300.81 155.248 300.78 155.318 300.74C155.418 300.7 155.528 300.66 155.628 300.61C155.738 300.56 155.848 300.5 155.958 300.44C156.028 300.41 156.098 300.37 156.168 300.33C156.248 300.29 156.318 300.25 156.398 300.21C156.428 300.19 156.458 300.18 156.488 300.16C156.548 300.13 156.608 300.1 156.668 300.07C156.778 300.01 156.888 299.94 156.998 299.87C157.068 299.83 157.128 299.79 157.198 299.74C157.238 299.72 157.278 299.7 157.318 299.67L162.448 303.29L165.088 300.65L161.468 295.52C161.488 295.48 161.508 295.44 161.538 295.4C161.598 295.34 161.638 295.27 161.678 295.2ZM149.818 294.28C146.348 294.28 143.538 291.47 143.538 288C143.538 284.53 146.348 281.72 149.818 281.72C153.288 281.72 156.098 284.53 156.098 288C156.098 291.47 153.288 294.28 149.818 294.28Z" fill="black"/>
<path d="M245.368 304.29C245.448 304.24 245.538 304.18 245.618 304.13C245.658 304.1 245.698 304.07 245.738 304.04C245.758 304.02 245.778 304.01 245.798 303.99C245.848 303.95 245.908 303.91 245.958 303.87C246.008 303.83 246.058 303.8 246.098 303.76C246.168 303.7 246.248 303.65 246.318 303.59C246.388 303.54 246.448 303.47 246.508 303.42C246.558 303.38 246.608 303.34 246.648 303.29C246.698 303.25 246.738 303.2 246.788 303.16C246.848 303.1 246.918 303.05 246.978 302.99C247.048 302.92 247.108 302.85 247.178 302.78C247.218 302.74 247.258 302.69 247.298 302.65C247.348 302.6 247.388 302.55 247.438 302.5C247.458 302.48 247.478 302.46 247.488 302.44C247.518 302.4 247.558 302.37 247.598 302.33C247.658 302.26 247.718 302.18 247.788 302.1C247.828 302.05 247.868 302 247.908 301.95C247.928 301.92 247.958 301.9 247.978 301.87L252.668 303.18L253.908 300.56L249.928 297.75C249.938 297.72 249.938 297.68 249.948 297.65C249.958 297.59 249.978 297.53 249.988 297.47C250.008 297.37 250.028 297.28 250.048 297.18C250.058 297.13 250.058 297.08 250.068 297.03C250.068 297 250.078 296.98 250.078 296.95C250.088 296.88 250.098 296.82 250.108 296.75C250.118 296.69 250.128 296.63 250.128 296.57C250.138 296.48 250.158 296.38 250.168 296.29C250.178 296.21 250.178 296.12 250.178 296.03C250.178 295.97 250.188 295.9 250.188 295.84C250.188 295.78 250.198 295.71 250.198 295.65C250.198 295.56 250.208 295.48 250.208 295.39C250.208 295.3 250.198 295.2 250.198 295.11C250.198 295.05 250.198 294.99 250.198 294.93C250.198 294.86 250.188 294.8 250.188 294.73C250.188 294.7 250.188 294.68 250.188 294.65C250.188 294.6 250.188 294.55 250.178 294.49C250.168 294.39 250.158 294.29 250.148 294.19C250.138 294.13 250.138 294.07 250.128 294.01C250.128 293.97 250.128 293.94 250.118 293.9L254.358 291.51L253.388 288.78L248.588 289.61C248.568 289.58 248.548 289.55 248.528 289.52C248.498 289.47 248.458 289.42 248.428 289.36C248.378 289.28 248.318 289.19 248.268 289.11C248.238 289.07 248.208 289.03 248.178 288.99C248.158 288.97 248.148 288.95 248.128 288.93C248.088 288.88 248.048 288.82 248.008 288.77C247.968 288.72 247.938 288.67 247.898 288.63C247.838 288.56 247.788 288.48 247.728 288.41C247.678 288.34 247.608 288.28 247.558 288.22C247.518 288.17 247.478 288.12 247.428 288.08C247.388 288.03 247.338 287.99 247.298 287.94C247.238 287.88 247.188 287.81 247.128 287.75C247.058 287.68 246.988 287.62 246.918 287.55C246.878 287.51 246.828 287.47 246.788 287.43C246.738 287.38 246.688 287.34 246.638 287.29C246.618 287.27 246.598 287.25 246.578 287.24C246.538 287.21 246.508 287.17 246.468 287.13C246.398 287.07 246.318 287.01 246.238 286.94C246.188 286.9 246.138 286.86 246.088 286.82C246.058 286.8 246.038 286.77 246.008 286.75L247.318 282.06L244.698 280.82L241.888 284.8C241.858 284.79 241.818 284.79 241.788 284.78C241.728 284.77 241.668 284.75 241.608 284.74C241.508 284.72 241.418 284.7 241.318 284.68C241.268 284.67 241.218 284.67 241.168 284.66C241.138 284.66 241.118 284.65 241.088 284.65C241.018 284.64 240.958 284.63 240.888 284.62C240.828 284.61 240.768 284.6 240.708 284.6C240.618 284.59 240.518 284.57 240.428 284.56C240.348 284.55 240.258 284.55 240.168 284.55C240.108 284.55 240.038 284.54 239.978 284.54C239.918 284.54 239.848 284.53 239.788 284.53C239.698 284.53 239.618 284.52 239.528 284.52C239.438 284.52 239.338 284.53 239.248 284.53C239.188 284.53 239.128 284.53 239.068 284.53C238.998 284.53 238.938 284.54 238.868 284.54C238.838 284.54 238.818 284.54 238.788 284.54C238.738 284.54 238.688 284.54 238.628 284.55C238.528 284.56 238.428 284.57 238.328 284.58C238.268 284.59 238.208 284.59 238.148 284.6C238.108 284.6 238.078 284.6 238.038 284.61L235.648 280.37L232.918 281.34L233.748 286.14C233.718 286.16 233.688 286.18 233.658 286.2C233.608 286.23 233.558 286.27 233.498 286.3C233.418 286.35 233.328 286.41 233.248 286.46C233.208 286.49 233.168 286.52 233.128 286.55C233.108 286.57 233.088 286.58 233.068 286.6C233.018 286.64 232.958 286.68 232.908 286.72C232.858 286.76 232.808 286.79 232.768 286.83C232.698 286.89 232.618 286.94 232.548 287C232.478 287.05 232.418 287.12 232.358 287.17C232.308 287.21 232.258 287.25 232.218 287.3C232.168 287.34 232.128 287.39 232.078 287.43C232.018 287.49 231.948 287.54 231.888 287.6C231.818 287.67 231.758 287.74 231.688 287.81C231.648 287.85 231.608 287.9 231.568 287.94C231.518 287.99 231.478 288.04 231.428 288.09C231.408 288.11 231.388 288.13 231.378 288.15C231.348 288.19 231.308 288.22 231.268 288.26C231.208 288.33 231.148 288.41 231.078 288.49C231.038 288.54 230.998 288.59 230.958 288.64C230.938 288.67 230.908 288.69 230.888 288.72L226.198 287.41L224.958 290.03L228.938 292.84C228.928 292.87 228.928 292.91 228.918 292.94C228.908 293 228.888 293.06 228.878 293.12C228.858 293.22 228.838 293.31 228.818 293.41C228.808 293.46 228.808 293.51 228.798 293.56C228.798 293.59 228.788 293.61 228.788 293.64C228.778 293.71 228.768 293.77 228.758 293.84C228.748 293.9 228.738 293.96 228.738 294.02C228.728 294.11 228.708 294.21 228.698 294.3C228.688 294.38 228.688 294.47 228.688 294.56C228.688 294.62 228.678 294.69 228.678 294.75C228.678 294.81 228.668 294.88 228.668 294.94C228.668 295.03 228.658 295.11 228.658 295.2C228.658 295.29 228.668 295.39 228.668 295.48C228.668 295.54 228.668 295.6 228.668 295.66C228.668 295.73 228.678 295.79 228.678 295.86C228.678 295.89 228.678 295.91 228.678 295.94C228.678 295.99 228.678 296.04 228.688 296.1C228.698 296.2 228.708 296.3 228.718 296.4C228.728 296.46 228.728 296.52 228.738 296.58C228.738 296.62 228.738 296.65 228.748 296.69L224.508 299.08L225.478 301.81L230.278 300.98C230.298 301.01 230.318 301.04 230.338 301.07C230.368 301.12 230.408 301.17 230.438 301.23C230.488 301.31 230.548 301.4 230.598 301.48C230.628 301.52 230.658 301.56 230.688 301.6C230.708 301.62 230.718 301.64 230.738 301.66C230.778 301.71 230.818 301.77 230.858 301.82C230.898 301.87 230.928 301.92 230.968 301.96C231.028 302.03 231.078 302.11 231.138 302.18C231.188 302.25 231.258 302.31 231.308 302.37C231.348 302.42 231.388 302.47 231.438 302.51C231.478 302.56 231.528 302.6 231.568 302.65C231.628 302.71 231.678 302.78 231.738 302.84C231.808 302.91 231.878 302.97 231.948 303.04C231.988 303.08 232.038 303.12 232.078 303.16C232.128 303.21 232.178 303.25 232.228 303.3C232.248 303.32 232.268 303.34 232.288 303.35C232.328 303.38 232.358 303.42 232.398 303.46C232.468 303.52 232.548 303.58 232.628 303.65C232.678 303.69 232.728 303.73 232.778 303.77C232.808 303.79 232.828 303.82 232.858 303.84L231.548 308.53L234.168 309.77L236.978 305.79C237.008 305.8 237.048 305.8 237.078 305.81C237.138 305.82 237.198 305.84 237.258 305.85C237.358 305.87 237.448 305.89 237.548 305.91C237.598 305.92 237.648 305.92 237.698 305.93C237.728 305.93 237.748 305.94 237.778 305.94C237.848 305.95 237.908 305.96 237.978 305.97C238.038 305.98 238.098 305.99 238.158 305.99C238.248 306 238.348 306.02 238.438 306.03C238.518 306.04 238.608 306.04 238.698 306.04C238.758 306.04 238.828 306.05 238.888 306.05C238.948 306.05 239.018 306.06 239.078 306.06C239.168 306.06 239.248 306.07 239.338 306.07C239.428 306.07 239.528 306.06 239.618 306.06C239.678 306.06 239.738 306.06 239.798 306.06C239.868 306.06 239.928 306.05 239.998 306.05C240.028 306.05 240.048 306.05 240.078 306.05C240.128 306.05 240.178 306.05 240.238 306.04C240.338 306.03 240.438 306.02 240.538 306.01C240.598 306 240.658 306 240.718 305.99C240.758 305.99 240.788 305.99 240.828 305.98L243.218 310.22L245.948 309.25L245.118 304.45C245.148 304.43 245.178 304.41 245.208 304.39C245.258 304.36 245.318 304.33 245.368 304.29ZM237.368 299.7C234.938 298.55 233.908 295.64 235.058 293.21C236.208 290.78 239.118 289.75 241.548 290.9C243.978 292.05 245.008 294.96 243.858 297.39C242.698 299.82 239.788 300.85 237.368 299.7Z" fill="black"/>
<path d="M177.232 261.49C177.282 261.41 177.332 261.34 177.372 261.26C177.392 261.22 177.412 261.18 177.432 261.14C177.442 261.12 177.452 261.1 177.462 261.08C177.492 261.03 177.522 260.98 177.542 260.92C177.562 260.87 177.592 260.83 177.612 260.78C177.652 260.7 177.692 260.63 177.722 260.56C177.752 260.49 177.782 260.42 177.812 260.35C177.832 260.3 177.852 260.25 177.882 260.19C177.902 260.14 177.922 260.09 177.942 260.03C177.972 259.96 178.002 259.89 178.032 259.82C178.062 259.74 178.082 259.66 178.112 259.58C178.132 259.53 178.142 259.48 178.162 259.43C178.182 259.37 178.202 259.32 178.212 259.26C178.222 259.24 178.222 259.22 178.232 259.19C178.242 259.15 178.262 259.1 178.272 259.06C178.292 258.98 178.312 258.89 178.332 258.8C178.342 258.75 178.352 258.69 178.372 258.64C178.382 258.61 178.392 258.58 178.392 258.55L182.662 257.81V255.23L178.392 254.49C178.382 254.46 178.372 254.43 178.372 254.4C178.362 254.35 178.352 254.29 178.332 254.24C178.312 254.15 178.292 254.07 178.272 253.98C178.262 253.94 178.242 253.89 178.232 253.85C178.222 253.83 178.222 253.8 178.212 253.78C178.192 253.72 178.182 253.67 178.162 253.61C178.142 253.56 178.132 253.51 178.112 253.46C178.082 253.38 178.062 253.3 178.032 253.22C178.002 253.15 177.972 253.08 177.942 253.01C177.922 252.96 177.902 252.9 177.882 252.85C177.862 252.8 177.842 252.75 177.812 252.69C177.782 252.62 177.752 252.55 177.722 252.48C177.682 252.4 177.642 252.33 177.612 252.26C177.592 252.21 177.562 252.16 177.542 252.12C177.512 252.07 177.482 252.01 177.462 251.96C177.452 251.94 177.442 251.92 177.432 251.9C177.412 251.86 177.392 251.82 177.372 251.78C177.332 251.7 177.282 251.63 177.232 251.55C177.202 251.5 177.172 251.46 177.142 251.41C177.122 251.38 177.112 251.36 177.092 251.33L179.592 247.79L177.772 245.97L174.232 248.47C174.202 248.45 174.182 248.44 174.152 248.42C174.102 248.39 174.062 248.36 174.012 248.33C173.932 248.28 173.862 248.23 173.782 248.19C173.742 248.17 173.702 248.15 173.662 248.13C173.642 248.12 173.622 248.11 173.602 248.1C173.552 248.07 173.502 248.04 173.442 248.02C173.392 248 173.352 247.97 173.302 247.95C173.222 247.91 173.152 247.87 173.082 247.84C173.012 247.81 172.942 247.78 172.872 247.75C172.822 247.73 172.772 247.71 172.712 247.68C172.662 247.66 172.612 247.64 172.552 247.62C172.482 247.59 172.412 247.56 172.342 247.53C172.262 247.5 172.182 247.48 172.102 247.45C172.052 247.43 172.002 247.42 171.952 247.4C171.892 247.38 171.842 247.36 171.782 247.35C171.762 247.34 171.742 247.34 171.712 247.33C171.672 247.32 171.622 247.3 171.582 247.29C171.502 247.27 171.412 247.25 171.322 247.23C171.272 247.22 171.212 247.21 171.162 247.19C171.132 247.18 171.102 247.17 171.072 247.17L170.332 242.9H167.752L167.012 247.17C166.982 247.18 166.952 247.19 166.922 247.19C166.872 247.2 166.812 247.21 166.762 247.23C166.672 247.25 166.592 247.27 166.502 247.29C166.462 247.3 166.412 247.32 166.372 247.33C166.352 247.34 166.322 247.34 166.302 247.35C166.242 247.37 166.192 247.38 166.132 247.4C166.082 247.42 166.032 247.43 165.982 247.45C165.902 247.48 165.822 247.5 165.742 247.53C165.672 247.56 165.602 247.59 165.532 247.62C165.482 247.64 165.422 247.66 165.372 247.68C165.322 247.7 165.272 247.72 165.212 247.75C165.142 247.78 165.072 247.81 165.002 247.84C164.922 247.88 164.852 247.92 164.782 247.95C164.732 247.97 164.682 248 164.642 248.02C164.592 248.05 164.532 248.08 164.482 248.1C164.462 248.11 164.442 248.12 164.422 248.13C164.382 248.15 164.342 248.17 164.302 248.19C164.222 248.23 164.152 248.28 164.072 248.33C164.022 248.36 163.982 248.39 163.932 248.42C163.902 248.44 163.872 248.45 163.852 248.47L160.312 245.97L158.492 247.79L160.992 251.33C160.972 251.36 160.962 251.38 160.942 251.41C160.912 251.46 160.882 251.5 160.852 251.55C160.802 251.63 160.752 251.7 160.712 251.78C160.692 251.82 160.672 251.86 160.652 251.9C160.642 251.92 160.632 251.94 160.622 251.96C160.592 252.01 160.562 252.06 160.542 252.12C160.522 252.17 160.492 252.21 160.472 252.26C160.432 252.34 160.392 252.41 160.362 252.48C160.332 252.55 160.302 252.62 160.272 252.69C160.252 252.74 160.232 252.79 160.202 252.85C160.182 252.9 160.162 252.95 160.142 253.01C160.112 253.08 160.082 253.15 160.052 253.22C160.022 253.3 160.002 253.38 159.972 253.46C159.952 253.51 159.942 253.56 159.922 253.61C159.902 253.67 159.882 253.72 159.872 253.78C159.862 253.8 159.862 253.83 159.852 253.85C159.842 253.89 159.822 253.94 159.812 253.98C159.792 254.06 159.772 254.15 159.752 254.24C159.742 254.29 159.732 254.35 159.712 254.4C159.702 254.43 159.692 254.46 159.692 254.49L155.422 255.23V257.81L159.692 258.55C159.702 258.58 159.712 258.61 159.712 258.64C159.722 258.69 159.732 258.75 159.752 258.8C159.772 258.89 159.792 258.97 159.812 259.06C159.822 259.1 159.842 259.15 159.852 259.19C159.862 259.21 159.862 259.23 159.872 259.26C159.892 259.32 159.902 259.37 159.922 259.43C159.942 259.48 159.952 259.53 159.972 259.58C160.002 259.66 160.022 259.74 160.052 259.82C160.082 259.89 160.112 259.96 160.142 260.03C160.162 260.08 160.182 260.14 160.202 260.19C160.222 260.24 160.242 260.29 160.272 260.35C160.302 260.42 160.332 260.49 160.362 260.56C160.402 260.64 160.442 260.71 160.472 260.78C160.492 260.83 160.522 260.88 160.542 260.92C160.572 260.97 160.602 261.03 160.622 261.08C160.632 261.1 160.642 261.12 160.652 261.14C160.672 261.18 160.692 261.22 160.712 261.26C160.752 261.34 160.802 261.41 160.852 261.49C160.882 261.54 160.912 261.58 160.942 261.63C160.962 261.66 160.972 261.69 160.992 261.71L158.492 265.25L160.312 267.07L163.852 264.57C163.882 264.59 163.902 264.6 163.932 264.62C163.982 264.65 164.022 264.68 164.072 264.71C164.152 264.76 164.222 264.81 164.302 264.85C164.342 264.87 164.382 264.89 164.422 264.91C164.442 264.92 164.462 264.93 164.482 264.94C164.532 264.97 164.582 265 164.642 265.02C164.692 265.04 164.732 265.07 164.782 265.09C164.862 265.13 164.932 265.17 165.002 265.2C165.072 265.23 165.142 265.26 165.212 265.29C165.262 265.31 165.312 265.33 165.372 265.36C165.422 265.38 165.472 265.4 165.532 265.42C165.602 265.45 165.672 265.48 165.742 265.51C165.822 265.54 165.902 265.56 165.982 265.59C166.032 265.61 166.082 265.62 166.132 265.64C166.192 265.66 166.242 265.68 166.302 265.69C166.322 265.7 166.342 265.7 166.372 265.71C166.412 265.72 166.462 265.74 166.502 265.75C166.582 265.77 166.672 265.79 166.762 265.81C166.812 265.82 166.872 265.83 166.922 265.85C166.952 265.86 166.982 265.87 167.012 265.87L167.752 270.14H170.332L171.072 265.87C171.102 265.86 171.132 265.85 171.162 265.85C171.212 265.84 171.272 265.83 171.322 265.81C171.412 265.79 171.492 265.77 171.582 265.75C171.622 265.74 171.672 265.72 171.712 265.71C171.732 265.7 171.762 265.7 171.782 265.69C171.842 265.67 171.892 265.66 171.952 265.64C172.002 265.62 172.052 265.61 172.102 265.59C172.182 265.56 172.262 265.54 172.342 265.51C172.412 265.48 172.482 265.45 172.552 265.42C172.602 265.4 172.652 265.38 172.712 265.36C172.762 265.34 172.812 265.32 172.872 265.29C172.942 265.26 173.012 265.23 173.082 265.2C173.162 265.16 173.232 265.12 173.302 265.09C173.352 265.07 173.402 265.04 173.442 265.02C173.492 264.99 173.542 264.97 173.602 264.94C173.622 264.93 173.642 264.92 173.662 264.91C173.702 264.89 173.742 264.87 173.782 264.85C173.862 264.81 173.932 264.76 174.012 264.71C174.062 264.68 174.102 264.65 174.152 264.62C174.182 264.6 174.202 264.59 174.232 264.57L177.772 267.07L179.592 265.25L177.092 261.71C177.112 261.68 177.122 261.66 177.142 261.63C177.182 261.59 177.212 261.54 177.232 261.49ZM169.052 260.86C166.662 260.86 164.722 258.92 164.722 256.53C164.722 254.14 166.662 252.2 169.052 252.2C171.442 252.2 173.382 254.14 173.382 256.53C173.382 258.92 171.442 260.86 169.052 260.86Z" fill="black"/>
<path d="M222.127 295.96C222.177 295.75 222.247 295.54 222.287 295.32C222.317 295.21 222.327 295.09 222.347 294.98C222.357 294.92 222.367 294.87 222.377 294.81C222.407 294.67 222.437 294.52 222.457 294.38C222.477 294.25 222.507 294.12 222.527 293.99C222.557 293.78 222.607 293.58 222.637 293.37C222.667 293.18 222.667 292.99 222.697 292.8C222.717 292.66 222.727 292.52 222.737 292.38C222.747 292.24 222.767 292.1 222.777 291.96C222.787 291.77 222.817 291.58 222.827 291.4C222.837 291.19 222.827 290.98 222.837 290.77C222.837 290.64 222.847 290.51 222.847 290.38C222.847 290.23 222.847 290.08 222.847 289.94C222.847 289.88 222.847 289.82 222.847 289.76C222.847 289.65 222.857 289.53 222.847 289.42C222.837 289.2 222.817 288.98 222.807 288.77C222.797 288.63 222.787 288.5 222.777 288.36C222.767 288.28 222.777 288.2 222.767 288.13L232.367 283.27L230.487 277.15L219.817 278.51C219.777 278.44 219.737 278.38 219.697 278.31C219.627 278.19 219.567 278.07 219.497 277.96C219.387 277.77 219.277 277.58 219.167 277.39C219.107 277.29 219.037 277.2 218.977 277.11C218.947 277.06 218.907 277.01 218.877 276.96C218.797 276.84 218.717 276.71 218.627 276.59C218.557 276.48 218.477 276.37 218.397 276.27C218.277 276.1 218.157 275.92 218.037 275.76C217.927 275.61 217.797 275.47 217.677 275.32C217.587 275.21 217.497 275.1 217.417 274.99C217.327 274.88 217.237 274.78 217.147 274.67C217.027 274.53 216.907 274.37 216.787 274.23C216.647 274.08 216.497 273.93 216.347 273.78C216.257 273.68 216.167 273.59 216.067 273.49C215.967 273.38 215.857 273.28 215.757 273.18C215.717 273.14 215.677 273.1 215.637 273.06C215.557 272.98 215.477 272.89 215.397 272.81C215.237 272.66 215.067 272.52 214.907 272.38C214.807 272.29 214.697 272.2 214.597 272.11C214.537 272.06 214.487 272 214.427 271.95L217.777 261.73L212.117 258.73L205.537 267.24C205.457 267.22 205.387 267.21 205.307 267.19C205.177 267.15 205.047 267.12 204.917 267.08C204.707 267.03 204.497 266.96 204.277 266.92C204.167 266.89 204.047 266.88 203.937 266.86C203.877 266.85 203.827 266.84 203.767 266.83C203.627 266.8 203.477 266.77 203.337 266.75C203.207 266.73 203.077 266.7 202.947 266.68C202.737 266.65 202.537 266.6 202.327 266.57C202.137 266.54 201.947 266.54 201.757 266.51C201.617 266.49 201.477 266.48 201.337 266.47C201.197 266.46 201.057 266.44 200.917 266.43C200.727 266.42 200.537 266.39 200.357 266.38C200.147 266.37 199.937 266.38 199.727 266.37C199.597 266.37 199.467 266.36 199.337 266.36C199.187 266.36 199.037 266.36 198.897 266.36C198.837 266.36 198.777 266.36 198.717 266.36C198.607 266.36 198.487 266.35 198.377 266.36C198.157 266.37 197.937 266.39 197.727 266.4C197.587 266.41 197.457 266.42 197.317 266.43C197.237 266.44 197.157 266.43 197.087 266.44L192.227 256.84L186.107 258.72L187.467 269.39C187.397 269.43 187.337 269.47 187.267 269.51C187.147 269.58 187.027 269.65 186.917 269.72C186.727 269.83 186.537 269.94 186.347 270.05C186.247 270.11 186.157 270.18 186.067 270.24C186.017 270.27 185.967 270.31 185.917 270.34C185.797 270.42 185.667 270.5 185.547 270.59C185.437 270.66 185.327 270.74 185.227 270.82C185.057 270.94 184.877 271.06 184.717 271.18C184.567 271.29 184.427 271.42 184.277 271.54C184.167 271.63 184.057 271.72 183.947 271.8C183.837 271.89 183.737 271.98 183.627 272.07C183.487 272.19 183.327 272.31 183.187 272.43C183.037 272.57 182.887 272.72 182.737 272.87C182.637 272.96 182.547 273.05 182.447 273.15C182.337 273.25 182.237 273.36 182.137 273.46C182.097 273.5 182.057 273.54 182.017 273.58C181.937 273.66 181.847 273.74 181.767 273.82C181.617 273.98 181.477 274.15 181.337 274.31C181.247 274.41 181.157 274.52 181.067 274.62C181.017 274.68 180.957 274.73 180.907 274.79L170.687 271.44L167.687 277.1L176.197 283.68C176.177 283.76 176.167 283.83 176.147 283.91C176.107 284.04 176.077 284.17 176.037 284.3C175.987 284.51 175.917 284.72 175.877 284.94C175.847 285.05 175.837 285.17 175.817 285.28C175.807 285.34 175.797 285.39 175.787 285.45C175.757 285.6 175.727 285.74 175.707 285.88C175.687 286.01 175.657 286.14 175.637 286.27C175.607 286.48 175.557 286.68 175.527 286.89C175.497 287.08 175.497 287.27 175.467 287.46C175.447 287.6 175.437 287.74 175.427 287.88C175.417 288.02 175.407 288.16 175.387 288.3C175.377 288.49 175.347 288.68 175.337 288.86C175.327 289.07 175.337 289.28 175.327 289.49C175.327 289.62 175.317 289.75 175.317 289.88C175.317 290.03 175.317 290.18 175.317 290.32C175.317 290.38 175.317 290.44 175.317 290.5C175.317 290.61 175.307 290.73 175.317 290.84C175.327 291.06 175.347 291.28 175.357 291.49C175.367 291.63 175.377 291.76 175.387 291.9C175.397 291.98 175.387 292.06 175.397 292.13L165.797 296.99L167.677 303.11L178.347 301.75C178.387 301.82 178.427 301.88 178.467 301.95C178.537 302.07 178.597 302.19 178.667 302.3C178.777 302.49 178.887 302.68 178.997 302.87C179.057 302.97 179.127 303.06 179.187 303.15C179.217 303.2 179.257 303.25 179.287 303.3C179.367 303.42 179.447 303.55 179.537 303.67C179.607 303.78 179.687 303.89 179.767 303.99C179.887 304.16 180.007 304.34 180.127 304.5C180.237 304.65 180.367 304.79 180.487 304.94C180.577 305.05 180.667 305.16 180.747 305.27C180.837 305.38 180.927 305.48 181.017 305.59C181.137 305.73 181.257 305.89 181.377 306.03C181.517 306.18 181.667 306.33 181.817 306.48C181.907 306.58 181.997 306.67 182.097 306.77C182.197 306.88 182.307 306.98 182.407 307.08C182.447 307.12 182.487 307.16 182.527 307.2C182.607 307.28 182.687 307.37 182.767 307.45C182.927 307.6 183.097 307.74 183.257 307.88C183.357 307.97 183.467 308.06 183.567 308.15C183.627 308.2 183.677 308.26 183.737 308.31L180.387 318.53L186.047 321.53L192.627 313.02C192.707 313.04 192.777 313.05 192.857 313.07C192.987 313.11 193.117 313.14 193.247 313.18C193.457 313.23 193.667 313.3 193.887 313.34C193.997 313.37 194.117 313.38 194.227 313.4C194.287 313.41 194.347 313.42 194.397 313.43C194.537 313.46 194.687 313.49 194.827 313.51C194.957 313.53 195.087 313.56 195.217 313.58C195.427 313.61 195.627 313.66 195.837 313.69C196.027 313.72 196.217 313.72 196.407 313.75C196.547 313.77 196.687 313.78 196.827 313.79C196.967 313.8 197.107 313.81 197.247 313.83C197.437 313.84 197.627 313.87 197.807 313.88C198.017 313.89 198.227 313.88 198.437 313.89C198.567 313.89 198.697 313.9 198.827 313.9C198.977 313.9 199.127 313.9 199.267 313.9C199.327 313.9 199.387 313.9 199.447 313.9C199.557 313.9 199.677 313.91 199.787 313.9C200.007 313.89 200.227 313.87 200.437 313.86C200.577 313.85 200.707 313.84 200.847 313.83C200.927 313.82 201.007 313.83 201.077 313.82L205.937 323.42L212.057 321.54L210.697 310.87C210.767 310.83 210.827 310.79 210.897 310.75C211.017 310.68 211.137 310.61 211.247 310.55C211.437 310.44 211.627 310.33 211.817 310.22C211.917 310.16 212.007 310.09 212.097 310.03C212.147 310 212.197 309.96 212.247 309.93C212.367 309.85 212.497 309.77 212.617 309.68C212.727 309.61 212.837 309.53 212.937 309.45C213.107 309.33 213.287 309.21 213.447 309.09C213.597 308.98 213.737 308.85 213.887 308.73C213.997 308.64 214.107 308.55 214.217 308.46C214.327 308.37 214.427 308.28 214.537 308.19C214.677 308.07 214.837 307.95 214.977 307.83C215.127 307.69 215.277 307.54 215.427 307.39C215.527 307.3 215.617 307.21 215.717 307.11C215.817 307.01 215.927 306.9 216.027 306.8C216.067 306.76 216.107 306.72 216.157 306.68C216.237 306.6 216.327 306.52 216.407 306.44C216.557 306.28 216.697 306.11 216.837 305.95C216.927 305.85 217.017 305.74 217.107 305.64C217.157 305.58 217.217 305.53 217.267 305.47L227.487 308.82L230.487 303.16L221.977 296.58C221.997 296.5 222.007 296.43 222.027 296.35C222.057 296.23 222.097 296.1 222.127 295.96ZM202.227 300.43C196.547 302.17 190.527 298.98 188.787 293.3C187.047 287.62 190.237 281.6 195.917 279.86C201.597 278.12 207.617 281.31 209.357 286.99C211.097 292.66 207.907 298.68 202.227 300.43Z" fill="black"/>
<path d="M144.651 312.45L130.201 326.89L123.891 320.59L132.031 312.45H144.651Z" fill="#FF9D0A"/>
<path d="M176.028 312.45L145.888 342.58L139.578 336.27L163.408 312.45H176.028Z" fill="#FF9D0A"/>
<path d="M207.412 312.44L176.532 343.31H163.922L194.792 312.44H207.412Z" fill="#FF9D0A"/>
<path d="M238.78 312.44L207.91 343.31H195.32L226.19 312.44H238.78Z" fill="#FF9D0A"/>
<path d="M270.177 312.44L239.307 343.31H226.688L257.557 312.44H270.177Z" fill="#FF9D0A"/>
<path d="M272.747 76.08H113.227L186.697 2.61C190.167 -0.87 195.817 -0.87 199.287 2.61L272.747 76.08Z" fill="black"/>
<path d="M316.468 119.8H69.5078L100.378 88.9302H285.598L287.198 90.5302L293.498 96.8202L302.878 106.2L316.468 119.8Z" fill="#FF9D0A"/>
<path d="M202.892 54.3501C202.952 54.2601 203.012 54.1701 203.062 54.0801C203.092 54.0301 203.112 53.9801 203.142 53.9301C203.152 53.9101 203.172 53.8801 203.182 53.8501C203.212 53.7901 203.252 53.7201 203.282 53.6601C203.312 53.6001 203.342 53.5501 203.372 53.4901C203.422 53.4001 203.472 53.3101 203.512 53.2201C203.552 53.1401 203.582 53.0501 203.622 52.9601C203.652 52.9001 203.672 52.8401 203.702 52.7701C203.732 52.7101 203.752 52.6401 203.782 52.5801C203.812 52.4901 203.852 52.4101 203.882 52.3201C203.922 52.2201 203.942 52.1301 203.972 52.0301C203.992 51.9701 204.012 51.9101 204.032 51.8501C204.052 51.7801 204.072 51.7101 204.092 51.6401C204.102 51.6101 204.112 51.5901 204.122 51.5601C204.142 51.5101 204.162 51.4501 204.172 51.4001C204.202 51.3001 204.222 51.1901 204.242 51.0901C204.262 51.0301 204.272 50.9601 204.282 50.9001C204.292 50.8601 204.302 50.8301 204.312 50.7901L209.472 49.9001V46.7801L204.312 45.8901C204.302 45.8501 204.292 45.8201 204.282 45.7801C204.272 45.7201 204.252 45.6501 204.242 45.5901C204.212 45.4901 204.192 45.3801 204.172 45.2801C204.162 45.2301 204.142 45.1701 204.122 45.1201C204.112 45.0901 204.102 45.0701 204.092 45.0401C204.072 44.9701 204.052 44.9001 204.032 44.8301C204.012 44.7701 203.992 44.7101 203.972 44.6501C203.942 44.5501 203.912 44.4501 203.882 44.3601C203.852 44.2701 203.812 44.1901 203.782 44.1001C203.752 44.0401 203.732 43.9701 203.702 43.9101C203.672 43.8501 203.652 43.7801 203.622 43.7201C203.582 43.6401 203.552 43.5501 203.512 43.4601C203.472 43.3701 203.422 43.2801 203.372 43.1901C203.342 43.1301 203.312 43.0801 203.282 43.0201C203.252 42.9601 203.212 42.8901 203.182 42.8301C203.172 42.8001 203.152 42.7801 203.142 42.7501C203.112 42.7001 203.092 42.6501 203.062 42.6001C203.012 42.5101 202.952 42.4201 202.892 42.3301C202.862 42.2701 202.822 42.2201 202.782 42.1601C202.762 42.1301 202.742 42.0901 202.722 42.0601L205.742 37.7801L203.542 35.5801L199.262 38.6001C199.232 38.5801 199.192 38.5601 199.162 38.5401C199.102 38.5001 199.052 38.4701 198.992 38.4301C198.902 38.3701 198.812 38.3101 198.722 38.2601C198.672 38.2301 198.622 38.2101 198.572 38.1801C198.552 38.1701 198.522 38.1501 198.492 38.1401C198.432 38.1101 198.362 38.0701 198.302 38.0401C198.242 38.0101 198.192 37.9801 198.132 37.9501C198.042 37.9001 197.952 37.8501 197.862 37.8101C197.782 37.7701 197.692 37.7401 197.602 37.7001C197.542 37.6701 197.482 37.6501 197.412 37.6201C197.352 37.5901 197.282 37.5701 197.222 37.5401C197.132 37.5101 197.052 37.4701 196.962 37.4401C196.862 37.4001 196.772 37.3801 196.672 37.3501C196.612 37.3301 196.552 37.3101 196.492 37.2901C196.422 37.2701 196.352 37.2501 196.282 37.2301C196.252 37.2201 196.232 37.2101 196.202 37.2001C196.152 37.1801 196.092 37.1601 196.042 37.1501C195.942 37.1201 195.832 37.1001 195.732 37.0801C195.672 37.0601 195.602 37.0501 195.542 37.0401C195.502 37.0301 195.472 37.0201 195.432 37.0101L194.542 31.8501H191.422L190.532 37.0101C190.492 37.0201 190.462 37.0301 190.422 37.0401C190.362 37.0501 190.292 37.0701 190.232 37.0801C190.132 37.1101 190.022 37.1301 189.922 37.1501C189.872 37.1601 189.812 37.1801 189.762 37.2001C189.732 37.2101 189.712 37.2201 189.682 37.2301C189.612 37.2501 189.542 37.2701 189.472 37.2901C189.412 37.3101 189.352 37.3301 189.292 37.3501C189.192 37.3801 189.092 37.4101 189.002 37.4401C188.912 37.4701 188.832 37.5101 188.742 37.5401C188.682 37.5701 188.612 37.5901 188.552 37.6201C188.492 37.6501 188.422 37.6701 188.362 37.7001C188.282 37.7401 188.192 37.7701 188.102 37.8101C188.012 37.8501 187.922 37.9001 187.832 37.9501C187.772 37.9801 187.722 38.0101 187.662 38.0401C187.602 38.0701 187.532 38.1101 187.472 38.1401C187.452 38.1501 187.422 38.1701 187.392 38.1801C187.342 38.2101 187.292 38.2301 187.242 38.2601C187.152 38.3101 187.062 38.3701 186.972 38.4301C186.912 38.4601 186.862 38.5001 186.802 38.5401C186.772 38.5601 186.732 38.5801 186.702 38.6001L182.422 35.5801L180.222 37.7801L183.242 42.0601C183.222 42.0901 183.202 42.1301 183.182 42.1601C183.142 42.2201 183.112 42.2701 183.072 42.3301C183.012 42.4201 182.952 42.5101 182.902 42.6001C182.872 42.6501 182.852 42.7001 182.822 42.7501C182.812 42.7701 182.792 42.8001 182.782 42.8301C182.752 42.8901 182.712 42.9601 182.682 43.0201C182.652 43.0801 182.622 43.1301 182.592 43.1901C182.542 43.2801 182.492 43.3701 182.452 43.4601C182.412 43.5401 182.382 43.6301 182.342 43.7201C182.312 43.7801 182.292 43.8401 182.262 43.9101C182.232 43.9701 182.212 44.0401 182.182 44.1001C182.152 44.1901 182.112 44.2701 182.082 44.3601C182.042 44.4601 182.022 44.5501 181.992 44.6501C181.972 44.7101 181.952 44.7701 181.932 44.8301C181.912 44.9001 181.892 44.9701 181.872 45.0401C181.862 45.0701 181.852 45.0901 181.842 45.1201C181.822 45.1701 181.802 45.2301 181.792 45.2801C181.762 45.3801 181.742 45.4901 181.722 45.5901C181.702 45.6501 181.692 45.7201 181.682 45.7801C181.672 45.8201 181.662 45.8501 181.652 45.8901L176.492 46.7801V49.9001L181.652 50.7901C181.662 50.8301 181.672 50.8601 181.682 50.9001C181.692 50.9601 181.712 51.0301 181.722 51.0901C181.752 51.1901 181.772 51.3001 181.792 51.4001C181.802 51.4501 181.822 51.5101 181.842 51.5601C181.852 51.5901 181.862 51.6101 181.872 51.6401C181.892 51.7101 181.912 51.7801 181.932 51.8501C181.952 51.9101 181.972 51.9701 181.992 52.0301C182.022 52.1301 182.052 52.2301 182.082 52.3201C182.112 52.4101 182.152 52.4901 182.182 52.5801C182.212 52.6401 182.232 52.7101 182.262 52.7701C182.292 52.8301 182.312 52.9001 182.342 52.9601C182.382 53.0401 182.412 53.1301 182.452 53.2201C182.492 53.3101 182.542 53.4001 182.592 53.4901C182.622 53.5501 182.652 53.6001 182.682 53.6601C182.712 53.7201 182.752 53.7901 182.782 53.8501C182.792 53.8801 182.812 53.9001 182.822 53.9301C182.852 53.9801 182.872 54.0301 182.902 54.0801C182.952 54.1701 183.012 54.2601 183.072 54.3501C183.102 54.4101 183.142 54.4601 183.182 54.5201C183.202 54.5501 183.222 54.5901 183.242 54.6201L180.222 58.9001L182.422 61.1001L186.702 58.0801C186.732 58.1001 186.772 58.1201 186.802 58.1401C186.862 58.1801 186.912 58.2101 186.972 58.2501C187.062 58.3101 187.152 58.3701 187.242 58.4201C187.292 58.4501 187.342 58.4701 187.392 58.5001C187.422 58.5101 187.442 58.5301 187.472 58.5401C187.532 58.5701 187.602 58.6101 187.662 58.6401C187.722 58.6701 187.772 58.7001 187.832 58.7301C187.922 58.7801 188.012 58.8301 188.102 58.8701C188.182 58.9101 188.272 58.9401 188.362 58.9801C188.422 59.0101 188.482 59.0301 188.552 59.0601C188.612 59.0901 188.682 59.1101 188.742 59.1401C188.832 59.1701 188.912 59.2101 189.002 59.2401C189.102 59.2801 189.192 59.3001 189.292 59.3301C189.352 59.3501 189.412 59.3701 189.472 59.3901C189.542 59.4101 189.612 59.4301 189.682 59.4501C189.712 59.4601 189.732 59.4701 189.762 59.4801C189.812 59.5001 189.872 59.5201 189.922 59.5301C190.022 59.5601 190.132 59.5801 190.232 59.6001C190.292 59.6201 190.362 59.6301 190.422 59.6401C190.462 59.6501 190.492 59.6601 190.532 59.6701L191.422 64.8301H194.542L195.432 59.6701C195.472 59.6601 195.502 59.6501 195.542 59.6401C195.602 59.6301 195.672 59.6101 195.732 59.6001C195.832 59.5701 195.942 59.5501 196.042 59.5301C196.092 59.5201 196.152 59.5001 196.202 59.4801C196.232 59.4701 196.252 59.4601 196.282 59.4501C196.352 59.4301 196.422 59.4101 196.492 59.3901C196.552 59.3701 196.612 59.3501 196.672 59.3301C196.772 59.3001 196.872 59.2701 196.962 59.2401C197.052 59.2101 197.132 59.1701 197.222 59.1401C197.282 59.1101 197.352 59.0901 197.412 59.0601C197.472 59.0301 197.542 59.0101 197.602 58.9801C197.682 58.9401 197.772 58.9101 197.862 58.8701C197.952 58.8301 198.042 58.7801 198.132 58.7301C198.192 58.7001 198.252 58.6701 198.302 58.6401C198.362 58.6101 198.432 58.5701 198.492 58.5401C198.522 58.5301 198.542 58.5101 198.572 58.5001C198.622 58.4701 198.672 58.4501 198.722 58.4201C198.812 58.3701 198.902 58.3101 198.992 58.2501C199.052 58.2201 199.102 58.1801 199.162 58.1401C199.192 58.1201 199.232 58.1001 199.262 58.0801L203.542 61.1001L205.742 58.9001L202.722 54.6201C202.742 54.5901 202.762 54.5501 202.782 54.5201C202.822 54.4601 202.862 54.4001 202.892 54.3501ZM192.992 53.5801C190.102 53.5801 187.752 51.2301 187.752 48.3401C187.752 45.4501 190.102 43.1001 192.992 43.1001C195.882 43.1001 198.232 45.4501 198.232 48.3401C198.232 51.2301 195.882 53.5801 192.992 53.5801Z" fill="#FF9D0A"/>
<path d="M199.507 364.73C199.547 364.67 199.587 364.61 199.617 364.55C199.637 364.52 199.647 364.48 199.667 364.45C199.677 364.43 199.687 364.42 199.697 364.4C199.717 364.36 199.737 364.32 199.767 364.27C199.787 364.23 199.807 364.19 199.827 364.16C199.857 364.1 199.887 364.04 199.917 363.98C199.947 363.92 199.967 363.87 199.987 363.81C200.007 363.77 200.027 363.73 200.037 363.69C200.057 363.65 200.067 363.61 200.087 363.56C200.107 363.5 200.137 363.45 200.157 363.39C200.177 363.33 200.197 363.26 200.217 363.2C200.227 363.16 200.247 363.12 200.257 363.08C200.267 363.03 200.287 362.99 200.297 362.94C200.307 362.92 200.307 362.9 200.317 362.89C200.327 362.85 200.337 362.82 200.347 362.79C200.367 362.72 200.377 362.65 200.397 362.59C200.407 362.55 200.417 362.5 200.427 362.46C200.437 362.44 200.437 362.41 200.447 362.39L203.847 361.8V359.75L200.447 359.16C200.437 359.14 200.437 359.11 200.427 359.09C200.417 359.05 200.407 359 200.397 358.96C200.377 358.89 200.367 358.82 200.347 358.76C200.337 358.72 200.327 358.69 200.317 358.66C200.307 358.64 200.307 358.62 200.297 358.61C200.287 358.56 200.267 358.52 200.257 358.47C200.247 358.43 200.227 358.39 200.217 358.35C200.197 358.29 200.177 358.22 200.157 358.16C200.137 358.1 200.107 358.05 200.087 357.99C200.067 357.95 200.057 357.91 200.037 357.86C200.017 357.82 200.007 357.78 199.987 357.74C199.967 357.68 199.947 357.63 199.917 357.57C199.887 357.51 199.857 357.45 199.827 357.39C199.807 357.35 199.787 357.31 199.767 357.28C199.747 357.24 199.727 357.2 199.697 357.15C199.687 357.13 199.677 357.12 199.667 357.1C199.647 357.07 199.637 357.03 199.617 357C199.587 356.94 199.547 356.88 199.507 356.82C199.487 356.78 199.457 356.75 199.437 356.71C199.427 356.69 199.417 356.67 199.397 356.64L201.387 353.82L199.937 352.37L197.117 354.36C197.097 354.35 197.077 354.34 197.047 354.32C197.007 354.3 196.977 354.27 196.937 354.25C196.877 354.21 196.817 354.17 196.757 354.14C196.727 354.12 196.687 354.11 196.657 354.09C196.637 354.08 196.627 354.07 196.607 354.06C196.567 354.04 196.527 354.02 196.477 353.99C196.437 353.97 196.397 353.95 196.367 353.93C196.307 353.9 196.247 353.87 196.187 353.84C196.127 353.81 196.077 353.79 196.017 353.77C195.977 353.75 195.937 353.73 195.897 353.72C195.857 353.7 195.817 353.69 195.767 353.67C195.707 353.65 195.657 353.62 195.597 353.6C195.537 353.58 195.467 353.56 195.407 353.54C195.367 353.53 195.327 353.51 195.287 353.5C195.237 353.49 195.197 353.47 195.147 353.46C195.127 353.45 195.107 353.45 195.097 353.44C195.057 353.43 195.027 353.42 194.997 353.41C194.927 353.39 194.857 353.38 194.797 353.36C194.757 353.35 194.707 353.34 194.667 353.33C194.647 353.32 194.617 353.32 194.597 353.31L194.007 349.91H191.957L191.367 353.31C191.347 353.32 191.317 353.32 191.297 353.33C191.257 353.34 191.207 353.35 191.167 353.36C191.097 353.38 191.027 353.39 190.967 353.41C190.927 353.42 190.897 353.43 190.867 353.44C190.847 353.45 190.827 353.45 190.817 353.46C190.767 353.47 190.727 353.49 190.677 353.5C190.637 353.51 190.597 353.53 190.557 353.54C190.497 353.56 190.427 353.58 190.367 353.6C190.307 353.62 190.257 353.65 190.197 353.67C190.157 353.69 190.117 353.7 190.067 353.72C190.027 353.74 189.987 353.75 189.947 353.77C189.887 353.79 189.837 353.81 189.777 353.84C189.717 353.87 189.657 353.9 189.597 353.93C189.557 353.95 189.517 353.97 189.487 353.99C189.447 354.01 189.407 354.03 189.357 354.06C189.337 354.07 189.327 354.08 189.307 354.09C189.277 354.11 189.237 354.12 189.207 354.14C189.147 354.17 189.087 354.21 189.027 354.25C188.987 354.27 188.957 354.3 188.917 354.32C188.897 354.33 188.877 354.34 188.847 354.36L186.027 352.37L184.577 353.82L186.567 356.64C186.557 356.66 186.547 356.68 186.527 356.71C186.507 356.75 186.477 356.78 186.457 356.82C186.417 356.88 186.377 356.94 186.347 357C186.327 357.03 186.317 357.07 186.297 357.1C186.287 357.12 186.277 357.13 186.267 357.15C186.247 357.19 186.227 357.23 186.197 357.28C186.177 357.32 186.157 357.36 186.137 357.39C186.107 357.45 186.077 357.51 186.047 357.57C186.017 357.63 185.997 357.68 185.977 357.74C185.957 357.78 185.937 357.82 185.927 357.86C185.907 357.9 185.897 357.94 185.877 357.99C185.857 358.05 185.827 358.1 185.807 358.16C185.787 358.22 185.767 358.29 185.747 358.35C185.737 358.39 185.717 358.43 185.707 358.47C185.697 358.52 185.677 358.56 185.667 358.61C185.657 358.63 185.657 358.65 185.647 358.66C185.637 358.7 185.627 358.73 185.617 358.76C185.597 358.83 185.587 358.9 185.567 358.96C185.557 359 185.547 359.05 185.537 359.09C185.527 359.11 185.527 359.14 185.517 359.16L182.117 359.75V361.8L185.517 362.39C185.527 362.41 185.527 362.44 185.537 362.46C185.547 362.5 185.557 362.55 185.567 362.59C185.587 362.66 185.597 362.73 185.617 362.79C185.627 362.83 185.637 362.86 185.647 362.89C185.657 362.91 185.657 362.93 185.667 362.94C185.677 362.99 185.697 363.03 185.707 363.08C185.717 363.12 185.737 363.16 185.747 363.2C185.767 363.26 185.787 363.33 185.807 363.39C185.827 363.45 185.857 363.5 185.877 363.56C185.897 363.6 185.907 363.64 185.927 363.69C185.947 363.73 185.957 363.77 185.977 363.81C185.997 363.87 186.017 363.92 186.047 363.98C186.077 364.04 186.107 364.1 186.137 364.16C186.157 364.2 186.177 364.24 186.197 364.27C186.217 364.31 186.237 364.35 186.267 364.4C186.277 364.42 186.287 364.43 186.297 364.45C186.317 364.48 186.327 364.52 186.347 364.55C186.377 364.61 186.417 364.67 186.457 364.73C186.477 364.77 186.507 364.8 186.527 364.84C186.537 364.86 186.547 364.88 186.567 364.91L184.577 367.73L186.027 369.18L188.847 367.19C188.867 367.2 188.887 367.21 188.907 367.23C188.947 367.25 188.977 367.28 189.017 367.3C189.077 367.34 189.137 367.38 189.197 367.41C189.227 367.43 189.267 367.44 189.297 367.46C189.317 367.47 189.327 367.48 189.347 367.49C189.387 367.51 189.427 367.53 189.467 367.56C189.507 367.58 189.547 367.6 189.577 367.62C189.637 367.65 189.697 367.68 189.757 367.71C189.817 367.74 189.867 367.76 189.927 367.78C189.967 367.8 190.007 367.82 190.047 367.83C190.087 367.85 190.127 367.86 190.177 367.88C190.237 367.9 190.287 367.93 190.347 367.95C190.407 367.97 190.477 367.99 190.537 368.01C190.577 368.02 190.617 368.04 190.657 368.05C190.707 368.06 190.747 368.08 190.797 368.09C190.817 368.1 190.837 368.1 190.847 368.11C190.887 368.12 190.917 368.13 190.947 368.14C191.017 368.16 191.087 368.17 191.147 368.19C191.187 368.2 191.237 368.21 191.277 368.22C191.297 368.23 191.327 368.23 191.347 368.24L191.937 371.64H193.987L194.577 368.24C194.597 368.23 194.627 368.23 194.647 368.22C194.687 368.21 194.737 368.2 194.777 368.19C194.847 368.17 194.917 368.16 194.977 368.14C195.017 368.13 195.047 368.12 195.077 368.11C195.097 368.1 195.117 368.1 195.127 368.09C195.177 368.08 195.217 368.06 195.267 368.05C195.307 368.04 195.347 368.02 195.387 368.01C195.447 367.99 195.517 367.97 195.577 367.95C195.637 367.93 195.687 367.9 195.747 367.88C195.787 367.86 195.827 367.85 195.877 367.83C195.917 367.81 195.957 367.8 195.997 367.78C196.057 367.76 196.107 367.74 196.167 367.71C196.227 367.68 196.287 367.65 196.347 367.62C196.387 367.6 196.427 367.58 196.457 367.56C196.497 367.54 196.537 367.52 196.577 367.49C196.597 367.48 196.607 367.47 196.627 367.46C196.657 367.44 196.697 367.43 196.727 367.41C196.787 367.38 196.847 367.34 196.907 367.3C196.947 367.28 196.977 367.25 197.017 367.23C197.037 367.22 197.057 367.21 197.087 367.19L199.907 369.18L201.357 367.73L199.367 364.91C199.377 364.89 199.387 364.87 199.407 364.84C199.467 364.81 199.487 364.77 199.507 364.73ZM192.987 364.23C191.077 364.23 189.537 362.68 189.537 360.78C189.537 358.87 191.087 357.33 192.987 357.33C194.897 357.33 196.437 358.88 196.437 360.78C196.437 362.68 194.897 364.23 192.987 364.23Z" fill="#FF9D0A"/>
<path d="M192.99 133.34C195.884 133.34 198.23 130.994 198.23 128.1C198.23 125.206 195.884 122.86 192.99 122.86C190.096 122.86 187.75 125.206 187.75 128.1C187.75 130.994 190.096 133.34 192.99 133.34Z" fill="black"/>
<path d="M192.989 119.8C189.829 119.8 187.129 117.53 186.589 114.42L183.999 99.6402C183.019 94.0502 187.319 88.9302 192.989 88.9302C198.659 88.9302 202.959 94.0502 201.979 99.6402L199.389 114.42C198.849 117.53 196.149 119.8 192.989 119.8Z" fill="black"/>
</svg>
